<svg width="148" height="140" viewBox="0 0 148 140" fill="none" xmlns="http://www.w3.org/2000/svg">
<path d="M136.362 87.2568C132.982 81.3717 128.69 77.8875 122.474 75.1927C121.761 74.4465 123.361 74.5284 123.793 74.5032C127.642 74.4139 131.606 77.3261 134.584 79.8242C130.362 69.7983 123.613 58.85 114.179 53.2498C103.379 46.5442 87.4735 45.8863 78.419 55.7468C83.0045 62.6914 86.4334 71.3415 85.115 79.7992C82.3916 90.5216 70.8533 88.2853 67.7415 78.1946C65.2192 70.0101 67.5128 60.9366 72.3923 54.0034C50.117 28.9077 15.8004 38.8158 2.64905 67.6995C2.63427 67.7356 2.61226 67.7684 2.58438 67.7958C2.5565 67.8232 2.52333 67.8446 2.4869 67.8587C2.45047 67.8728 2.41154 67.8794 2.37248 67.878C2.33343 67.8765 2.29509 67.8672 2.25978 67.8504C2.22427 67.8364 2.19192 67.8154 2.16461 67.7887C2.13731 67.762 2.1156 67.7301 2.10075 67.6949C2.0859 67.6597 2.07821 67.6219 2.07814 67.5837C2.07806 67.5455 2.0856 67.5077 2.10031 67.4725C14.5773 36.6008 50.8003 26.0146 74.7765 51.1882C81.609 43.9808 92.293 41.4673 101.847 43.3008C119.006 46.3747 132.076 62.9369 136.212 79.2157C137.013 77.5981 137.174 75.7285 137.965 74.1123C138.893 72.2211 141.798 69.6697 141.845 71.1708C140.99 72.9979 140.277 74.8878 139.712 76.824C139.106 78.7713 138.482 80.9897 137.969 82.9621L137.88 83.3394L136.935 87.151C136.922 87.2119 136.891 87.2674 136.847 87.3108C136.802 87.3541 136.745 87.3833 136.684 87.3946C136.623 87.4059 136.56 87.3988 136.502 87.3743C136.445 87.3498 136.397 87.3089 136.362 87.2568ZM72.1764 70.2419C70.2819 81.5447 80.9647 87.4687 81.1657 75.6359C80.8319 69.7327 79.0449 64.0034 75.9635 58.9571C73.8517 62.3782 72.5559 66.2395 72.1764 70.2419Z" fill="#231F20"/>
<path d="M34.5251 33.2806C34.5267 33.3204 34.5383 33.3592 34.5588 33.3933C34.5793 33.4275 34.608 33.4559 34.6424 33.4761C34.6767 33.4962 34.7156 33.5074 34.7554 33.5086C34.7952 33.5098 34.8347 33.501 34.8702 33.483C41.3702 30.2419 49.9722 30.8737 55.3943 34.3565C55.4426 34.3883 55.5012 34.4006 55.5582 34.3907C55.6152 34.3808 55.6663 34.3495 55.701 34.3033C55.7355 34.2566 55.7535 34.1997 55.7522 34.1417C55.7509 34.0836 55.7305 34.0277 55.694 33.9825C50.8852 28.0826 40.6532 29.1771 34.746 32.8873C34.6782 32.9292 34.6229 32.9887 34.586 33.0594C34.5491 33.1301 34.532 33.2095 34.5364 33.2892L34.5251 33.2806Z" fill="#231F20"/>
<path d="M76.9184 92.1237C80.0141 95.0437 85.3269 92.3519 85.839 88.3477C85.8433 88.3208 85.8383 88.2933 85.8249 88.2696C85.8116 88.2458 85.7905 88.2274 85.7653 88.2171C85.7401 88.2068 85.7121 88.2054 85.686 88.2131C85.6599 88.2207 85.6371 88.237 85.6214 88.2592C83.5431 91.0163 80.5147 92.8527 77.0367 91.9196C77.0105 91.9111 76.9821 91.9118 76.9563 91.9217C76.9305 91.9316 76.9089 91.95 76.8951 91.9739C76.8813 91.9977 76.876 92.0256 76.8803 92.0529C76.8845 92.0802 76.898 92.1052 76.9184 92.1237Z" fill="#231F20"/>
<path d="M32.5801 34.5292C32.329 34.3033 32.0025 34.1792 31.6647 34.1814C31.4144 34.1757 31.1681 34.2456 30.9581 34.382C30.7552 34.5144 30.5974 34.7053 30.5054 34.9295C30.3796 35.2331 30.3506 35.568 30.4222 35.8888C30.7112 36.0038 31.0207 36.0587 31.3316 36.0499C31.5409 36.0451 31.7445 35.9818 31.9196 35.8672C32.0948 35.7526 32.2343 35.5913 32.3225 35.4015C32.4473 35.1237 32.5339 34.8303 32.5801 34.5292Z" fill="#231F20"/>
<path d="M86.8179 86.264C86.8086 86.2821 86.8053 86.3027 86.8084 86.3228C86.8116 86.3429 86.8211 86.3615 86.8355 86.3758C86.85 86.3902 86.8686 86.3995 86.8887 86.4026C86.9088 86.4056 86.9294 86.4022 86.9475 86.3928C87.1417 86.2969 87.3142 86.1623 87.4544 85.9973C87.6427 85.7729 87.7862 85.5145 87.8771 85.2361C87.9676 84.9588 88.0023 84.6663 87.9792 84.3755C87.9648 84.1594 87.9059 83.9485 87.8062 83.7562C87.7964 83.7393 87.7818 83.7256 87.7643 83.7169C87.7468 83.7082 87.7271 83.7049 87.7076 83.7074C87.6882 83.7098 87.67 83.7179 87.6552 83.7307C87.6404 83.7435 87.6297 83.7604 87.6244 83.7792C87.5842 83.98 87.5383 84.1587 87.4925 84.3374C87.4302 84.5793 87.3565 84.8126 87.2828 85.0459C87.2092 85.2792 87.1298 85.5082 87.0342 85.7472C86.9713 85.9131 86.9035 86.0797 86.8179 86.264Z" fill="#231F20"/>
<path d="M108.612 54.4697C113.838 56.6802 119.982 61.6806 122.446 66.8303C122.45 66.8429 122.459 66.8532 122.47 66.8592C122.482 66.8651 122.496 66.8662 122.508 66.8621C122.521 66.858 122.531 66.849 122.537 66.8373C122.543 66.8255 122.544 66.8119 122.54 66.7993C121.365 61.119 114.292 55.2762 108.642 54.3768C108.63 54.3754 108.619 54.378 108.609 54.3842C108.599 54.3904 108.592 54.3998 108.588 54.4108C108.585 54.4218 108.585 54.4338 108.589 54.4445C108.594 54.4553 108.602 54.4642 108.612 54.4697Z" fill="#231F20"/>
</svg>
